<svg width="14" height="14" viewBox="0 0 14 14" fill="none" xmlns="http://www.w3.org/2000/svg">
<path d="M1.425 2.75C1.425 2.70858 1.45858 2.675 1.5 2.675H13C13.0414 2.675 13.075 2.70858 13.075 2.75V9.68934C13.075 9.70923 13.0671 9.72831 13.053 9.74237L9.49237 13.303C9.47831 13.3171 9.45923 13.325 9.43934 13.325H1.5C1.45858 13.325 1.425 13.2914 1.425 13.25V2.75Z" stroke="#3A3533" stroke-width="1.35" stroke-linejoin="round"/>
<rect x="3.75" width="1.3" height="5" rx="0.65" fill="#3A3533"/>
<path fill-rule="evenodd" clip-rule="evenodd" d="M9.4502 0.65C9.4502 0.291015 9.74121 0 10.1002 0C10.4592 0 10.7502 0.291015 10.7502 0.65V4.35C10.7502 4.70899 10.4592 5 10.1002 5C9.74121 5 9.4502 4.70899 9.4502 4.35V0.65Z" fill="#3A3533"/>
<path d="M12.7273 9.9773C12.9203 9.78425 12.9781 9.49392 12.8736 9.24169C12.7691 8.98946 12.523 8.825 12.25 8.825H9.25C8.87721 8.825 8.575 9.12721 8.575 9.5V12.5C8.575 12.773 8.73946 13.0191 8.99169 13.1236C9.24392 13.2281 9.53425 13.1703 9.7273 12.9773L12.7273 9.9773Z" stroke="#3A3533" stroke-width="1.35" stroke-linejoin="round"/>
</svg>
